<svg version="1.2" xmlns="http://www.w3.org/2000/svg" viewBox="0 0 1000 1000" width="1000" height="1000">
	<title>New Project(1)</title>
	<style>
		.s0 { fill: #e32e23 } 
		.s1 { fill: #080808 } 
	</style>
	<g id="Base Background">
		<path id="Red" class="s0" d="m499.4 950c-248.5 0-449.4-201.2-449.4-450 0-248.9 200.9-450 449.4-450m0 900c-248.5 0-449.4-201.2-449.4-450 0-248.9 200.9-450 449.4-450m0 900c-248.5 0-449.4-201.2-449.4-450 0-248.9 200.9-450 449.4-450"/>
		<path id="Black" class="s1" d="m500 50c248.3 0 449 201.1 449 450 0 248.8-200.7 450-449 450"/>
	</g>
	<g id="Base Foreground">
		<path id="Red" class="s0" d="m500 950c-124.4 0-225-100.6-225-225 0-124.4 100.6-225 225-225 124.4 0 225 100.6 225 225 0 124.4-100.6 225-225 225z"/>
		<path id="Black" class="s1" d="m500 500c-124.4 0-225-100.6-225-225 0-124.4 100.6-225 225-225 124.4 0 225 100.6 225 225 0 124.4-100.6 225-225 225z"/>
	</g>
	<g id="Dots">
		<path id="Large" class="s1" d="m500 825c-55.3 0-100-44.7-100-100 0-55.3 44.7-100 100-100 55.3 0 100 44.7 100 100 0 55.3-44.7 100-100 100z"/>
		<path id="Medium" class="s1" d="m260 657c-33.2 0-60-26.8-60-60 0-33.2 26.8-60 60-60 33.2 0 60 26.8 60 60 0 33.2-26.8 60-60 60z"/>
		<path id="Small" class="s1" d="m184 424c-13.8 0-25-11.2-25-25 0-13.8 11.2-25 25-25 13.8 0 25 11.2 25 25 0 13.8-11.2 25-25 25z"/>
	</g>
</svg>